<?xml version="1.0" standalone="no"?>
<!DOCTYPE svg PUBLIC "-//W3C//DTD SVG 1.1//EN" "http://www.w3.org/Graphics/SVG/1.1/DTD/svg11.dtd" >
<!--
2013-9-30: Created.
-->
<svg>
<defs>

<symbol id="ship" viewBox="0 0 1024 1024"><path d="M327.1 272.5c145.6 19.3 258.6 84.2 258.6 84.2l5-56.6c1.1-7.3-139.1-67-249.2-68.8 10.6-20 25.8-34.5 48.2-40.3 43.3-11.3 156 8.7 226.2 25.6 42.2 10.1 105.1 72.1 160.6 130.2l1.7-25.2c0-22.6 0-41.4 41.7-41.4 0 0 52.9-5.7 47 52.7v106.6l1.9 1.7c55 47 43.1 67 44.4 97.7 0 0 2 45.2 0 45.2C648.5 403 523.7 356.7 322 299.4c1.4-9.3 3.1-18.3 5.1-26.9zM930 780.8c34.5-6.8 29.5-55 29.5-55v-49.6c0-29.5-491-381.1-855.7-350.3-51.8 0-39.1 36.6-39.1 36.6C64.6 510 176.8 651.3 207 710.4c30.2 59-50.6 70.4-55.6 133.3L930 780.8z m-58.4 62.9" fill="" ></path></symbol>
</defs></svg>
